HIERARCHY
ROOT Hips
{
 OFFSET 0.000000 0.000000 0.000000
 CHANNELS 6 Xposition Yposition Zposition Yrotation Xrotation Zrotation
 JOINT Chest
 {
  OFFSET 0.000000 9.712594 -1.079177
  CHANNELS 3 Yrotation Xrotation Zrotation
  JOINT Chest2
  {
   OFFSET 0.000000 10.759251 0.000000
   CHANNELS 3 Yrotation Xrotation Zrotation
   JOINT Chest3
   {
    OFFSET 0.000000 9.823226 -0.001999
    CHANNELS 3 Yrotation Xrotation Zrotation
    JOINT Chest4
    {
     OFFSET 0.000000 9.812256 -0.002001
     CHANNELS 3 Yrotation Xrotation Zrotation
     JOINT Neck
     {
      OFFSET 0.000000 13.748480 0.000000
      CHANNELS 3 Yrotation Xrotation Zrotation
      JOINT Head
      {
       OFFSET 0.000000 9.135699 0.004298
       CHANNELS 3 Yrotation Xrotation Zrotation
       End Site
       {
        OFFSET 0.000000 16.972127 0.000578
       }
      }
     }
     JOINT RightCollar
     {
      OFFSET -2.995251 7.707918 0.000000
      CHANNELS 3 Yrotation Xrotation Zrotation
      JOINT RightShoulder
      {
       OFFSET -14.015160 0.000000 0.000000
       CHANNELS 3 Yrotation Xrotation Zrotation
       JOINT RightElbow
       {
        OFFSET -30.031081 0.000000 0.000000
        CHANNELS 3 Yrotation Xrotation Zrotation
        JOINT RightWrist
        {
         OFFSET -24.546019 0.000000 0.000000
         CHANNELS 3 Yrotation Xrotation Zrotation
         End Site
         {
          OFFSET -18.319691 0.000000 0.000000
         }
        }
       }
      }
     }
     JOINT LeftCollar
     {
      OFFSET 2.995251 7.707918 0.000000
      CHANNELS 3 Yrotation Xrotation Zrotation
      JOINT LeftShoulder
      {
       OFFSET 14.015160 0.000000 0.000000
       CHANNELS 3 Yrotation Xrotation Zrotation
       JOINT LeftElbow
       {
        OFFSET 30.031081 0.000000 0.000000
        CHANNELS 3 Yrotation Xrotation Zrotation
        JOINT LeftWrist
        {
         OFFSET 24.546019 0.000000 0.000000
         CHANNELS 3 Yrotation Xrotation Zrotation
         End Site
         {
          OFFSET 18.319691 0.000000 0.000000
         }
        }
       }
      }
     }
    }
   }
  }
 }
 JOINT RightHip
 {
  OFFSET -7.993633 0.005986 -0.000665
  CHANNELS 3 Yrotation Xrotation Zrotation
  JOINT RightKnee
  {
   OFFSET 0.000000 -41.535395 -0.000472
   CHANNELS 3 Yrotation Xrotation Zrotation
   JOINT RightAnkle
   {
    OFFSET 0.000000 -40.519621 -0.000796
    CHANNELS 3 Yrotation Xrotation Zrotation
    JOINT RightToe
    {
     OFFSET 0.000000 -6.852876 15.544628
     CHANNELS 3 Yrotation Xrotation Zrotation
     End Site
     {
      OFFSET 0.000000 -1.535338 6.621682
     }
    }
   }
  }
 }
 JOINT LeftHip
 {
  OFFSET 7.993633 0.003797 -0.000422
  CHANNELS 3 Yrotation Xrotation Zrotation
  JOINT LeftKnee
  {
   OFFSET 0.000000 -41.535395 -0.000472
   CHANNELS 3 Yrotation Xrotation Zrotation
   JOINT LeftAnkle
   {
    OFFSET 0.000000 -40.519621 -0.000796
    CHANNELS 3 Yrotation Xrotation Zrotation
    JOINT LeftToe
    {
     OFFSET 0.000000 -6.852876 15.544628
     CHANNELS 3 Yrotation Xrotation Zrotation
     End Site
     {
      OFFSET 0.000000 -1.535338 6.621682
     }
    }
   }
  }
 }
}
MOTION
Frames: 5
Frame Time: 0.016667
36.523103 89.174954 -17.944938 93.721343 0.082960 2.166761 1.622179 -1.087052 -2.418641 0.824648 -6.316896 -1.077602 0.819771 -0.497059 -0.993891 0.538009 5.462063 -0.748075 0.471991 19.508429 -0.631367 1.058747 0.208973 -1.300242 3.868800 2.923918 15.042575 -4.838471 -14.844937 69.607351 5.481152 14.586219 8.452187 -7.194705 25.328893 -3.830271 0.389700 0.794533 -15.101899 0.782880 -12.885689 -66.535157 -2.776669 13.253344 -7.462712 10.204595 29.463304 6.062228 -7.445809 -15.258478 -5.127622 -3.911836 64.253148 -0.984601 -11.349063 13.698222 14.493943 1.243807 -12.809566 3.948935 -0.928990 -10.860086 -5.390332 6.542111 19.631943 0.347976 9.698126 -8.529997 0.297995 -0.000582 -0.665399 2.072856
37.858043 89.391976 -18.101596 93.611787 0.132516 1.873870 1.372488 -0.989593 -2.237087 0.706422 -6.271894 -0.997237 0.702308 -0.451900 -0.925530 0.455249 5.496267 -0.696772 0.591229 19.389581 -0.677223 1.292433 -0.009264 -1.422720 3.255812 2.984223 15.090664 -5.480657 -14.515040 69.891863 4.761069 15.123588 7.707428 -7.681511 26.167318 -4.069331 -0.158531 0.613791 -14.992465 -0.167500 -13.058807 -66.213036 -4.590383 13.196415 -8.924284 9.618155 29.062387 6.306312 -6.126199 -17.114155 -4.958307 -8.322832 63.919630 -3.664294 -12.621196 10.360318 13.349545 1.252660 -12.025783 4.448903 -1.024259 -9.463541 -5.193298 6.465852 18.629112 0.327751 9.733512 -8.829750 0.182396 0.001734 -0.666874 2.078213
39.170197 89.588965 -18.241005 93.561851 0.217678 1.592912 1.128851 -0.908888 -2.060865 0.590956 -6.234557 -0.919111 0.587565 -0.414433 -0.859121 0.374363 5.524663 -0.646896 0.679974 19.304689 -0.681216 1.457197 -0.165194 -1.459080 2.617043 3.056554 15.103108 -6.227180 -14.206389 70.146650 4.179923 15.490462 7.102487 -7.984620 26.577854 -4.258198 -0.651941 0.377386 -14.877677 -0.961874 -13.343310 -65.896497 -6.403454 13.215894 -10.369411 9.279598 28.919115 6.629782 -4.665867 -18.826819 -4.844239 -10.864241 62.890175 -4.666137 -13.254108 7.322846 12.367875 0.981195 -11.921753 4.112409 -0.724081 -8.019061 -5.033485 6.085309 17.482474 0.292525 9.657459 -9.040260 0.082638 0.003280 -0.687073 2.093726
40.461656 89.760703 -18.374994 93.553476 0.354637 1.352482 0.900269 -0.856129 -1.898983 0.482612 -6.209890 -0.847254 0.479875 -0.389662 -0.798259 0.298319 5.543492 -0.601156 0.730442 19.265246 -0.630255 1.534205 -0.238242 -1.382377 1.965758 3.171089 15.057374 -7.071100 -13.909986 70.343551 3.805090 15.632300 6.716772 -7.949475 26.244663 -4.149610 -1.041211 0.053330 -14.774708 -1.454027 -13.825913 -65.609900 -8.172832 13.433152 -11.847975 9.342418 29.232852 7.021988 -3.150437 -20.437191 -4.835182 -9.963519 61.366543 -2.636140 -13.138145 5.009799 11.245331 0.483120 -12.893737 2.658516 0.289378 -6.487087 -4.952782 5.258194 16.133681 0.262247 9.347202 -9.166192 -0.031529 0.004517 -0.705225 2.172393
41.730329 89.912408 -18.491733 93.604284 0.527969 1.124228 0.677461 -0.821163 -1.741453 0.376908 -6.193310 -0.777280 0.374792 -0.373002 -0.739018 0.224089 5.556207 -0.556616 0.750680 19.260509 -0.537729 1.542178 -0.248441 -1.219557 1.287578 3.294725 14.974741 -8.019988 -13.636933 70.513550 3.567117 15.621402 6.499348 -7.717206 25.493501 -3.928288 -1.375739 -0.327062 -14.666464 -1.792490 -14.423943 -65.329216 -9.937565 13.712167 -13.364012 9.631333 29.798013 7.417635 -1.479079 -21.900501 -4.893346 -7.790284 59.111097 0.539169 -12.428404 3.127116 10.120082 0.042071 -14.406384 0.165026 1.689678 -4.915429 -4.868151 4.134582 14.638520 0.233274 8.924856 -9.202649 -0.128977 0.004989 -0.742232 2.261166
